<?xml version="1.0" encoding="UTF-8"?>
<svg id="Layer_1" data-name="Layer 1" xmlns="http://www.w3.org/2000/svg" viewBox="0 0 261.48 95.63">
  <defs>
    <style>
      .cls-1 {
        fill: #fff;
      }
    </style>
  </defs>
  <g>
    <path class="cls-1" d="m136.62,95.63h-7.93c2.39-3.84,4.95-7.99,7.53-12.11q2.36-3.77.24-7.56c-1.12-1.99-2.21-3.99-3.35-5.96-.57-.99-1.11-2.01-1.83-2.87-.71-.85-1.64-1.52-2.4-2.19h8.72c.07.59,0,1.19.21,1.64,1.18,2.39,2.44,4.74,3.83,7.39,1.7-3.13,3.98-5.61,4.6-9.08h8.18c-3.15,2.67-4.63,6.68-7.01,10.07-.53.75-.86,1.65-1.44,2.35-1.19,1.41-.93,2.61,0,4.1,2.4,3.82,4.6,7.76,6.95,11.61.62,1.02,1.52,1.87,2.12,2.59h-8.84c.91-.98.23-1.98-.34-3-1.37-2.44-2.73-4.88-4.27-7.64-1.78,3.19-3.46,6.14-5.06,9.13-.2.37.04.96.09,1.53Z"/>
    <path class="cls-1" d="m113.69,70.97v6.74h7.18v5.22h-7.22c.14,4.18-.37,8.5.3,12.7h-6.77c.16-1.27.48-2.73.49-4.19.07-7.23.07-14.46.09-21.7,0-1.68.32-3.43-1.16-4.76h17.98c-1.33,1.93-.96,4.1-.53,6h-10.36Z"/>
  </g>
  <g>
    <path class="cls-1" d="m261.32,63.5c.05,0,.11,0,.16,0-.03.05-.05.15-.08.15-.21.01-.43,0-.64,0"/>
    <path class="cls-1" d="m36.12,27.14c-.43.23-.85.48-1.29.67-2.56,1.15-5.11,2.3-7.68,3.4-.78.33-1.61.6-2.44.71-.77.11-.98.45-.96,1.15.03,1.44.01,2.88.03,4.32.04,3.73.17,7.46.09,11.19-.06,2.69.96,4.86,2.63,6.83.4.47.76.98,1.19,1.54H11.23c.14-.22.28-.49.47-.7.4-.46.83-.9,1.26-1.34,1.23-1.26,1.8-2.73,1.79-4.53-.05-9.83-.01-19.67-.03-29.51,0-4.02-.15-8.05-.06-12.07.06-2.93-1.24-5.09-3.25-7-.32-.3-.59-.64-1.05-1.14.51-.03.75-.06,1-.05,3.44.11,6.88.26,10.32.32,5.23.09,10.47.01,15.7.21,5.31.2,10.13,2.06,14.12,5.55,5.04,4.4,7.03,10.03,5.83,16.68-.36,2.01-.99,3.92-1.98,5.71-1.43,2.58-3.6,4.39-6.12,5.81-1.04.59-2.15,1.06-3.23,1.59-.42.21-.82.46-1.45.82,6.54,6.63,12.37,13.75,19.59,19.64-.24.07-.4.16-.56.16-3.55-.12-7.1-.2-10.64-.4-3.24-.18-3.26-.23-5.41-2.75-4.28-5-8.57-10-12.8-15.05-1.26-1.51-2.32-3.19-3.47-4.79-.41-.57-.04-.79.43-.99,3.04-1.3,6.09-2.59,9.12-3.92,2.27-.99,4.35-2.21,5.83-4.32,1.73-2.46,1.95-5.02.84-7.72-1.69-4.1-4.78-6.25-9.23-6.26-4.62-.02-9.24.09-13.86.12-.73,0-.88.31-.87.97.13,4.77.24,9.54.33,14.31.01.6.3.62.75.62,3.58-.04,7.15-.08,10.73-.11.23,0,.46.03.69.05.03.09.06.18.09.27Z"/>
    <path class="cls-1" d="m251.81.23c-1.85,2.04-3.33,4.23-3.41,7.09-.07,2.73.48,5.3,1.89,7.7-.1.06-.19.11-.29.17-.71-.49-1.48-.91-2.11-1.49-2.03-1.87-4.37-2.68-7.14-2.66-7.74.05-15.49-.01-23.23-.03-.69,0-1.38,0-2.18,0,.07,4.36.72,8.7.05,13.09.53,0,1.03,0,1.53,0,3.6-.03,7.21-.11,10.81-.08,2.15.02,4.2-.27,6.1-1.33.24-.13.52-.19.88-.19-1.15,1.73-2.34,3.41-2.51,5.51-.18,2.11.58,4.01,1.69,6.03-.5-.07-.76-.11-1.03-.14-1.47-.2-2.95-.55-4.42-.57-4.03-.07-8.06,0-12.09-.01-.77,0-.85.34-.82.99.12,2.85.25,5.7.26,8.55,0,1.13-.27,2.26-.49,3.38-.11.55-.06.78.57.78,8.54-.01,17.09-.07,25.63.03,2.94.04,5.39-.74,7.42-2.87.5-.53,1.12-.95,1.68-1.42.08.05.17.1.25.15-.17.46-.3.94-.53,1.37-1.79,3.36-2.19,6.86-1.04,10.51.18.57.56,1.08.86,1.61.15.27.31.53.52.87-8.11-.54-16.12-.29-24.12-.35-8.03-.06-16.06-.01-24.19-.01.14-.22.31-.52.53-.78.51-.58,1.07-1.12,1.56-1.71,1.04-1.27,1.63-2.71,1.64-4.4.03-7.78.1-15.56.14-23.35.03-6.32-.04-12.63.06-18.95.04-2.4-.93-4.2-2.53-5.81-.33-.33-.65-.68-.95-.99,3.59.06,7.15.16,10.7.16,10.73,0,21.47-.04,32.2-.07,1.66,0,3.3-.13,4.87-.79.32-.14.71-.14,1.06-.21.06.08.13.15.19.23Z"/>
    <path class="cls-1" d="m136.99.62c1.87-.03,3.77-.26,5.57.53.38.17.72.46,1.02.76,3.32,3.39,6.67,6.75,9.94,10.19,4.39,4.62,8.76,9.26,13.06,13.96,2.91,3.19,5.69,6.5,8.51,9.77.19.22.3.5.45.75.09-.07.18-.13.28-.2.03-.14.07-.28.07-.43-.02-3.06-.03-6.13-.06-9.19-.08-6.53-.22-13.06-.24-19.59,0-2.12-.91-3.79-2.13-5.37-.16-.21-.32-.43-.47-.65-.03-.04-.01-.1-.02-.23,4.96-.03,9.93.63,15.04-.54-.25.36-.39.62-.58.84-1.46,1.61-2.27,3.52-2.34,5.65-.16,4.47-.24,8.95-.26,13.43-.05,9.52-.05,19.03-.07,28.55,0,.48.03.96.03,1.44-.01,2.37.54,4.52,2.19,6.34.32.35.3,1,.43,1.51-.56.01-1.22.23-1.64,0-1.23-.68-2.49-1.4-3.51-2.35-2.47-2.31-4.87-4.7-7.2-7.15-4.15-4.37-8.24-8.79-12.34-13.21-3.87-4.16-7.71-8.33-11.58-12.5-.28-.3-.59-.56-.99-.94-.08.34-.14.48-.14.63.04,6.34.1,12.68.14,19.03.01,2.43.03,4.85-.05,7.28-.09,2.78,1.03,5.07,2.7,7.17.22.28.4.59.71,1.05h-16.14s.07-.18.15-.29c.57-.77,1.1-1.57,1.72-2.31,1.28-1.53,1.74-3.32,1.76-5.27.02-2.45.09-4.9.08-7.36-.03-10.77-.08-21.54-.13-32.31,0-.51-.05-1.01-.04-1.52.05-2.66-1.17-4.7-3.13-6.37-.32-.27-.68-.49-1.02-.73l.25-.36Z"/>
    <path class="cls-1" d="m73.65.48c5.02.65,10.03.63,15.23-.1-.21.33-.3.54-.44.7-1.69,1.88-2.4,4.09-2.4,6.59-.01,8.18-.09,16.36-.08,24.54,0,1.72.11,3.48.43,5.16.9,4.65,5.18,8.69,9.84,9.48,7.19,1.21,13.26-3.35,13.64-10.61.33-6.19.23-12.41.28-18.62.03-3.7-.06-7.41-.03-11.11.01-1.91-.69-3.46-1.97-4.82-.24-.26-.42-.57-.71-.97,4.95-.07,9.73.78,14.67-.43-.33.55-.51.96-.78,1.3-1.06,1.31-1.64,2.77-1.65,4.48-.07,7.73-.13,15.45-.25,23.18-.05,3.49,0,7-.39,10.45-.94,8.38-7.42,15.44-15.68,17.17-4.32.91-8.65.51-12.76-1.08-5.22-2.01-9.27-5.4-11.69-10.54-1.12-2.37-1.77-4.86-1.81-7.48-.1-6.71-.14-13.43-.24-20.14-.05-3.65-.2-7.3-.22-10.95-.01-2.32-1.06-4.07-2.7-5.56-.13-.12-.24-.25-.35-.38.03-.08.05-.16.08-.23Z"/>
  </g>
</svg>
